<svg width="24" height="24" viewBox="0 0 24 24" fill="787D85" xmlns="http://www.w3.org/2000/svg">
<path d="M19.6537 10.7616C19.7086 10.4706 19.7363 10.1739 19.7363 9.875C19.7363 7.18678 17.4891 5 14.7266 5C12.9631 5 11.3286 5.91408 10.4306 7.36661C9.21834 6.9842 7.97459 7.14818 6.94992 7.8353C5.92526 8.52188 5.3137 9.60893 5.26423 10.7975C3.9172 11.4201 3 12.7457 3 14.2083C3 14.4622 3.0632 14.7098 3.11155 14.9499L3.11211 14.9505C3.47199 16.7178 5.07939 18 6.93359 18H18.0664C20.2147 18 22 16.2988 22 14.2083C22 12.7299 21.0703 11.399 19.6537 10.7616Z"/>
</svg>
